# xmcd
#
# Track frame offsets: 
#        150
#        16919
#        37115
#        60703
#        79479
#        102142
#        124561
#        147094
#        164269
#
# Disc length: 2565 seconds
#
# Revision: 2
# Processed by: cddbd v1.5.2PL0 Copyright (c) Steve Scherf et al.
# Submitted via: ExactAudioCopy v1.1
#
DISCID=710a0309
DTITLE=Wille And The Bandits - Steal
DYEAR=2016
DGENRE=Blues
TTITLE0=Miles Away
TTITLE1=Hot Rocks
TTITLE2=Scared Of The Sun
TTITLE3=Atoned
TTITLE4=Crossfire Memories
TTITLE5=1970
TTITLE6=Our World
TTITLE7=Living Free
TTITLE8=Bad News
EXTD=
EXTT0=
EXTT1=
EXTT2=
EXTT3=
EXTT4=
EXTT5=
EXTT6=
EXTT7=
EXTT8=
PLAYORDER=
